<?xml version="1.0" standalone="no"?>
<!DOCTYPE svg PUBLIC "-//W3C//DTD SVG 20010904//EN"
 "http://www.w3.org/TR/2001/REC-SVG-20010904/DTD/svg10.dtd">
<svg version="1.0" xmlns="http://www.w3.org/2000/svg"
 width="750.000000pt" height="750.000000pt" viewBox="0 0 750.000000 750.000000"
 preserveAspectRatio="xMidYMid meet">
<metadata>
Created by potrace 1.14, written by Peter Selinger 2001-2017
</metadata>
<g transform="translate(0.000000,750.000000) scale(0.100000,-0.100000)"
fill="#000000" stroke="none">
<path d="M2345 6199 c-262 -33 -518 -157 -711 -345 -131 -128 -253 -330 -304
-504 -50 -169 -50 -164 -50 -1432 0 -828 -3 -1203 -11 -1240 -39 -185 -191
-338 -379 -382 -33 -8 -63 -15 -65 -15 -3 -1 -102 -1 -220 -1 l-215 0 12 -27
c20 -46 87 -155 128 -208 53 -69 172 -185 245 -239 226 -169 570 -262 840
-227 253 33 458 123 654 286 l89 73 33 -35 c90 -95 299 -220 454 -271 153 -51
374 -72 530 -51 233 32 474 143 648 299 l58 52 52 -49 c260 -245 641 -355
1012 -292 428 72 800 393 938 809 59 180 59 173 62 1375 2 1221 -2 1138 70
1260 44 75 113 141 191 182 103 55 159 63 447 63 l257 0 -6 28 c-58 241 -242
510 -456 668 -308 226 -720 291 -1082 170 -177 -59 -309 -134 -425 -242 l-61
-56 -56 48 c-89 78 -171 132 -289 190 -133 65 -258 100 -419 115 -317 31 -668
-87 -901 -303 l-61 -56 -39 35 c-220 193 -429 289 -705 323 -96 11 -165 11
-265 -1z m690 -971 c-20 -86 -24 -279 -24 -1334 -1 -1289 1 -1237 -59 -1348
-46 -85 -135 -172 -216 -211 -39 -18 -89 -37 -110 -41 -36 -6 -39 -5 -31 12 5
10 21 57 37 103 58 172 58 167 58 1342 0 1036 1 1079 20 1152 10 43 32 98 47
125 41 71 129 154 202 190 76 38 83 39 76 10z m1713 -23 c-9 -29 -13 -389 -15
-1260 -2 -777 -7 -1238 -13 -1271 -29 -140 -131 -269 -264 -333 -44 -22 -93
-42 -107 -45 l-26 -6 33 95 c67 192 66 162 68 1385 l3 1105 21 59 c48 129 134
230 243 285 34 17 64 30 65 28 2 -1 -2 -20 -8 -42z"/>
</g>
</svg>
